<svg width="149" height="9" viewBox="0 0 149 9" fill="none" xmlns="http://www.w3.org/2000/svg">
<path fill-rule="evenodd" clip-rule="evenodd" d="M138.172 5.99091C138.059 5.51212 138 5.01293 138 4.49985C138 3.98678 138.059 3.48758 138.172 3.00879L-1.52588e-05 4.49985L138.172 5.99091Z" fill="url(#paint0_linear_1_195)"/>
<path d="M140 4.5C140 6.98528 142.015 9 144.5 9C146.985 9 149 6.98528 149 4.5C149 2.01472 146.985 0 144.5 0C142.015 0 140 2.01472 140 4.5ZM147.791 4.5C147.791 6.31744 146.317 7.79077 144.5 7.79077C142.682 7.79077 141.209 6.31744 141.209 4.5C141.209 2.68256 142.682 1.20923 144.5 1.20923C146.317 1.20923 147.791 2.68256 147.791 4.5Z" fill="#6D5D43"/>
<path d="M142 4.5C142 5.88071 143.119 7 144.5 7C145.881 7 147 5.88071 147 4.5C147 3.11929 145.881 2 144.5 2C143.119 2 142 3.11929 142 4.5Z" fill="#6D5D43"/>
<defs>
<linearGradient id="paint0_linear_1_195" x1="138.999" y1="4.49994" x2="-0.000352808" y2="4.49997" gradientUnits="userSpaceOnUse">
<stop stop-color="#6D5D43"/>
<stop offset="1" stop-color="#59503F" stop-opacity="0"/>
</linearGradient>
</defs>
</svg>
