<svg width="149" height="9" viewBox="0 0 149 9" fill="none" xmlns="http://www.w3.org/2000/svg">
<path fill-rule="evenodd" clip-rule="evenodd" d="M10.8281 5.99091C10.9405 5.51212 11 5.01293 11 4.49985C11 3.98678 10.9405 3.48758 10.8281 3.00879L149 4.49985L10.8281 5.99091Z" fill="url(#paint0_linear_1_190)"/>
<path d="M9 4.5C9 6.98528 6.98528 9 4.5 9C2.01472 9 0 6.98528 0 4.5C0 2.01472 2.01472 0 4.5 0C6.98528 0 9 2.01472 9 4.5ZM1.20923 4.5C1.20923 6.31744 2.68256 7.79077 4.5 7.79077C6.31744 7.79077 7.79077 6.31744 7.79077 4.5C7.79077 2.68256 6.31744 1.20923 4.5 1.20923C2.68256 1.20923 1.20923 2.68256 1.20923 4.5Z" fill="#6D5D43"/>
<path d="M7 4.5C7 5.88071 5.88071 7 4.5 7C3.11929 7 2 5.88071 2 4.5C2 3.11929 3.11929 2 4.5 2C5.88071 2 7 3.11929 7 4.5Z" fill="#6D5D43"/>
<defs>
<linearGradient id="paint0_linear_1_190" x1="10.001" y1="4.49994" x2="149" y2="4.49997" gradientUnits="userSpaceOnUse">
<stop stop-color="#6D5D43"/>
<stop offset="1" stop-color="#59503F" stop-opacity="0"/>
</linearGradient>
</defs>
</svg>
