<svg width="319" height="37" viewBox="0 0 319 37" fill="none" xmlns="http://www.w3.org/2000/svg">
<g clip-path="url(#clip0_1_25)">
<path d="M61.5129 10.1948C63.5727 10.1493 65.6154 10.5766 67.4842 11.4438C69.0946 12.214 70.4409 13.4437 71.3533 14.9779C72.3009 16.6248 72.7753 18.5014 72.7243 20.4007C72.7777 22.3197 72.3035 24.2165 71.3533 25.8846C70.4409 27.4188 69.0946 28.6484 67.4842 29.4186C65.8086 30.2411 63.8283 30.6372 61.5129 30.6372H54.5668L54.5363 29.4186H61.1778C62.4731 29.455 63.7453 29.0701 64.8032 28.3218C65.8649 27.5174 66.678 26.4298 67.1491 25.1838C67.7243 23.6561 68.0035 22.0329 67.9716 20.4007C68.0061 18.7684 67.7268 17.1447 67.1491 15.6176C66.6878 14.3747 65.8722 13.2943 64.8032 12.5101C63.7539 11.7444 62.4756 11.3577 61.1778 11.4134H54.2286V10.1948H61.5129ZM57.5524 10.1948V30.6677H53.1653V10.1948H57.5524ZM53.2567 28.5351V30.6677H50.9109V30.363H51.2765C51.7632 30.36 52.2295 30.1673 52.5765 29.826C52.9235 29.4848 53.1238 29.0217 53.1349 28.5351H53.2567ZM53.2567 12.3273H53.1653C53.169 12.0875 53.1221 11.8496 53.0276 11.6291C52.9331 11.4086 52.7932 11.2105 52.617 11.0478C52.4482 10.871 52.2447 10.7311 52.0193 10.6367C51.7938 10.5423 51.5513 10.4956 51.3069 10.4994H50.9718L50.9414 10.1948H53.2872L53.2567 12.3273ZM81.1937 10.1948V30.6677H76.8067V10.1948H81.1937ZM88.9015 29.4186L89.6023 30.6677H81.1023V29.4186H88.9015ZM87.8353 19.9742V21.1928H81.1023V19.9742H87.8353ZM89.2641 10.1948V11.4438H81.0993V10.1948H89.2641ZM91.0616 24.6659L89.7211 30.6677H83.9935L85.0598 29.4186C85.929 29.4486 86.7922 29.2642 87.5733 28.8817C88.3543 28.4991 89.0292 27.9302 89.5383 27.225C90.0925 26.4465 90.5146 25.5819 90.7874 24.6659H91.0616ZM87.8322 21.1319V23.9348H87.5275V23.691C87.5368 23.3598 87.4795 23.0301 87.3591 22.7214C87.2388 22.4126 87.0578 22.1312 86.8268 21.8936C86.3422 21.4306 85.6996 21.1692 85.0294 21.1624V21.1015L87.8322 21.1319ZM87.8322 17.2018V20.0047H85.0598V19.9438C85.3799 19.9519 85.6985 19.8968 85.9973 19.7818C86.2961 19.6667 86.5693 19.4939 86.8013 19.2732C87.0333 19.0525 87.2195 18.7883 87.3494 18.4956C87.4792 18.2029 87.5501 17.8875 87.558 17.5674V17.2018H87.8322ZM89.2641 11.3524V14.7646H88.9594V14.399C88.9718 14.002 88.9055 13.6065 88.7643 13.2353C88.6231 12.864 88.4099 12.5244 88.1369 12.236C87.8541 11.953 87.5162 11.7312 87.144 11.5845C86.7719 11.4377 86.3736 11.3691 85.9738 11.3829V11.322L89.2641 11.3524ZM89.2641 9.67684V10.5299L85.6996 10.1948C86.148 10.1957 86.596 10.1652 87.0401 10.1034C87.5275 10.0424 87.9845 9.98149 88.3806 9.8901C88.682 9.8515 88.9783 9.77999 89.2641 9.67684ZM76.895 28.5351V30.6677H74.5492V30.363H74.9148C75.4015 30.36 75.8678 30.1673 76.2148 29.826C76.5618 29.4848 76.7621 29.0217 76.7732 28.5351H76.895ZM76.895 12.3273H76.8036C76.8018 12.0855 76.7493 11.8467 76.6496 11.6263C76.5499 11.406 76.4052 11.2089 76.2248 11.0478C76.0665 10.866 75.8692 10.7223 75.6477 10.6274C75.4261 10.5325 75.186 10.4887 74.9452 10.4994H74.5796V10.1948H76.9255V12.3273H76.895ZM121.192 22.4724V27.286C120.586 27.979 119.877 28.5749 119.09 29.053C118.065 29.688 116.958 30.18 115.8 30.5153C114.403 30.9108 112.955 31.0956 111.504 31.0637C109.48 31.1131 107.473 30.6743 105.655 29.7842C104.04 28.9352 102.699 27.6466 101.785 26.0674C100.834 24.3335 100.361 22.3778 100.415 20.4007C100.415 18.2072 100.871 16.3183 101.755 14.7646C102.665 13.1876 104.022 11.9155 105.655 11.1087C107.519 10.1912 109.579 9.74154 111.656 9.7987C113.661 9.83249 115.654 10.0983 117.597 10.5908C118.34 10.7741 119.056 11.0505 119.73 11.4134L119.791 16.4097H119.516C119.239 15.2458 118.697 14.1615 117.932 13.2413C117.265 12.4758 116.416 11.8894 115.465 11.5352C114.53 11.1816 113.539 11.006 112.54 11.0173C111.119 10.9572 109.717 11.3577 108.542 12.1592C107.367 12.9607 106.482 14.1203 106.02 15.4653C105.444 17.1089 105.165 18.8421 105.198 20.5835C105.16 22.2507 105.418 23.9113 105.959 25.4885C106.391 26.7641 107.185 27.8862 108.244 28.7179C109.301 29.4751 110.57 29.8801 111.87 29.8756C112.573 29.8708 113.272 29.7578 113.941 29.5404C114.598 29.3206 115.208 28.9796 115.739 28.5351C116.234 28.1164 116.604 27.5678 116.805 26.9509L116.835 22.4724C116.835 21.5889 116.348 21.1624 115.343 21.1624H114.886V20.8577H123.111V21.1624H122.685C121.652 21.1624 121.165 21.5889 121.195 22.4724H121.192ZM130.606 10.1948V23.0513C130.583 24.2826 130.811 25.5057 131.276 26.6462C131.681 27.6255 132.379 28.4557 133.274 29.0229C134.169 29.5901 135.217 29.8667 136.276 29.8146C137.351 29.8378 138.413 29.575 139.353 29.053C140.232 28.5313 140.933 27.7561 141.363 26.829C141.851 25.7698 142.091 24.6132 142.064 23.4473V10.1948H144.166V23.2645C144.211 24.7149 143.853 26.1492 143.13 27.4078C142.469 28.589 141.458 29.5363 140.236 30.1193C138.816 30.7809 137.263 31.1042 135.697 31.0637C133.625 31.0637 131.889 30.7591 130.457 30.1193C129.141 29.5617 128.018 28.6293 127.227 27.4383C126.499 26.1808 126.13 24.7477 126.161 23.295V10.1948H130.606ZM126.31 10.1948V11.9618H126.219C126.224 11.766 126.186 11.5715 126.107 11.3923C126.028 11.2132 125.91 11.0538 125.762 10.9259C125.473 10.6549 125.092 10.5026 124.696 10.4994H124.239V10.1948H126.31ZM132.647 10.1948V10.4994H132.19C131.788 10.4911 131.397 10.6322 131.093 10.8955C130.945 11.0295 130.827 11.1943 130.748 11.3784C130.669 11.5625 130.631 11.7615 130.636 11.9618H130.576V10.1948H132.647ZM142.183 10.1948V11.9618H142.092C142.097 11.766 142.059 11.5715 141.98 11.3923C141.901 11.2132 141.783 11.0538 141.635 10.9259C141.345 10.6549 140.965 10.5026 140.568 10.4994H140.111V10.1948H142.183ZM146.204 10.1948V10.4994H145.747C145.345 10.4911 144.955 10.6322 144.651 10.8955C144.5 11.0269 144.383 11.1921 144.309 11.3774C144.235 11.5627 144.206 11.763 144.224 11.9618H144.133V10.1948H146.204ZM156.289 9.61591L165.855 30.5153H160.584L154.491 15.2825L156.289 9.61591ZM149.982 28.5351C149.83 28.8479 149.798 29.2054 149.891 29.5404C149.981 29.8 150.152 30.0241 150.378 30.1802C150.59 30.3101 150.831 30.3835 151.079 30.3935H151.353V30.6981H145.108V30.3935H145.382C145.866 30.3887 146.34 30.2517 146.753 29.9974C147.288 29.6557 147.704 29.1551 147.941 28.5655L149.982 28.5351ZM156.289 9.61591L156.41 13.1804L149.16 30.5763H147.027L154.613 13.4241C154.674 13.3022 154.765 13.089 154.918 12.7843C155.07 12.4797 155.222 12.0836 155.375 11.6876C155.527 11.2915 155.71 10.8955 155.832 10.5299C155.946 10.2369 156.017 9.92913 156.045 9.61591H156.289ZM159.366 23.691V24.9097H150.744V23.691H159.366ZM159.792 28.5046H164.91C165.175 29.0771 165.585 29.5707 166.098 29.9365C166.512 30.1872 166.985 30.3238 167.469 30.3325H167.713V30.6372H158.391V30.3325H158.665C159.057 30.3234 159.43 30.1591 159.701 29.8756C160.005 29.5709 160.036 29.1139 159.792 28.5046ZM174.477 10.1643H178.254C179.127 10.1603 179.996 10.2626 180.844 10.4689C181.637 10.643 182.392 10.9633 183.068 11.4134C183.737 11.8327 184.283 12.4212 184.652 13.1195C185.069 13.9169 185.269 14.81 185.231 15.709C185.227 16.5581 185.05 17.3976 184.713 18.1768C184.368 19.0444 183.784 19.7967 183.029 20.3466C182.274 20.8965 181.38 21.2216 180.448 21.2842C181.092 21.502 181.676 21.8671 182.154 22.3505C182.637 22.8077 183.067 23.3188 183.433 23.8738C183.464 23.9043 183.555 24.0871 183.738 24.3917C183.921 24.6964 184.195 25.0925 184.5 25.5494C184.804 26.0064 185.139 26.4634 185.475 26.9204C185.81 27.3774 186.114 27.8039 186.389 28.139C186.751 28.5865 187.137 29.0137 187.546 29.4186C187.865 29.7181 188.237 29.9557 188.643 30.1193C189.077 30.2618 189.528 30.3438 189.984 30.363V30.6677H187.089C186.128 30.6685 185.169 30.5767 184.226 30.3935C183.411 30.2092 182.637 29.8789 181.941 29.4186C181.243 28.9343 180.652 28.3122 180.204 27.5906C180.016 27.3053 179.843 27.0104 179.686 26.7071C179.503 26.3415 179.321 25.9455 179.138 25.5494C178.955 25.1534 178.742 24.7573 178.559 24.3917C178.386 24.0453 178.234 23.6893 178.102 23.3254C177.98 22.9903 177.858 22.7771 177.797 22.5943C177.599 22.0658 177.287 21.5874 176.883 21.1928C176.606 20.8973 176.244 20.695 175.847 20.614V20.3093H176.761C177.285 20.3143 177.804 20.2106 178.285 20.0047C178.812 19.7645 179.272 19.3983 179.625 18.9384C180.051 18.3549 180.323 17.674 180.417 16.9581C180.448 16.7449 180.478 16.5621 180.509 16.3488C180.549 16.0868 180.559 15.821 180.539 15.5567C180.478 14.1553 180.143 13.1195 179.473 12.4797C179.166 12.1493 178.793 11.8866 178.379 11.7083C177.964 11.5299 177.517 11.4399 177.066 11.4438C176.762 11.4133 176.456 11.4133 176.152 11.4438H174.751C174.72 11.322 174.69 11.2306 174.659 11.1087C174.623 10.8923 174.572 10.6785 174.507 10.4689C174.47 10.3718 174.46 10.2668 174.477 10.1643ZM174.873 10.1643V30.6372H170.485V10.1948L174.873 10.1643ZM170.546 28.5351V30.6677H168.201V30.363H168.566C169.053 30.36 169.519 30.1673 169.866 29.826C170.213 29.4848 170.413 29.0217 170.425 28.5351H170.546ZM170.546 12.3273H170.455C170.453 12.0855 170.401 11.8467 170.301 11.6263C170.201 11.406 170.057 11.2089 169.876 11.0478C169.718 10.866 169.521 10.7223 169.299 10.6274C169.078 10.5325 168.837 10.4887 168.597 10.4994H168.201V10.1948H170.546V12.3273ZM174.751 28.5351H174.842C174.848 29.0263 175.045 29.496 175.39 29.8451C175.567 30.0175 175.777 30.1523 176.008 30.2413C176.238 30.3303 176.484 30.3717 176.731 30.363H177.097V30.6677H174.781L174.751 28.5351ZM200.25 10.1948C202.31 10.146 204.354 10.5734 206.222 11.4438C207.832 12.214 209.178 13.4437 210.091 14.9779C211.005 16.5011 211.462 18.2986 211.462 20.4312C211.515 22.3502 211.041 24.247 210.091 25.915C209.178 27.4492 207.832 28.6789 206.222 29.449C204.546 30.2716 202.566 30.6677 200.25 30.6677H193.274L193.243 29.449H199.885C201.18 29.4855 202.452 29.1006 203.51 28.3523C204.581 27.5565 205.396 26.4661 205.856 25.2143C206.434 23.6767 206.713 22.043 206.679 20.4007C206.713 18.7684 206.434 17.1447 205.856 15.6176C205.395 14.3747 204.579 13.2943 203.51 12.5101C202.452 11.7618 201.18 11.377 199.885 11.4134H192.969V10.1948H200.25ZM196.259 10.1948V30.6677H191.872V10.1948H196.259ZM191.964 28.5351V30.6677H189.618V30.363H189.984C190.47 30.36 190.937 30.1673 191.284 29.826C191.631 29.4848 191.831 29.0217 191.842 28.5351H191.964ZM191.964 12.3273H191.872C191.876 12.0875 191.829 11.8496 191.735 11.6291C191.64 11.4086 191.5 11.2105 191.324 11.0478C191.155 10.871 190.952 10.7311 190.726 10.6367C190.501 10.5423 190.258 10.4956 190.014 10.4994H189.648L189.618 10.1948H191.964V12.3273ZM219.901 10.1948V30.6677H215.514V10.1948H219.901ZM215.605 28.5351V30.6677H213.29V30.363H213.655C214.142 30.36 214.608 30.1673 214.955 29.826C215.302 29.4848 215.503 29.0217 215.514 28.5351H215.605ZM215.605 12.3273H215.514C215.512 12.0855 215.459 11.8467 215.36 11.6263C215.26 11.406 215.115 11.2089 214.935 11.0478C214.777 10.866 214.579 10.7223 214.358 10.6274C214.136 10.5325 213.896 10.4887 213.655 10.4994H213.29V10.1948H215.636L215.605 12.3273ZM219.84 28.5351H219.931C219.951 29.0233 220.146 29.4881 220.48 29.8451C220.835 30.1773 221.303 30.3623 221.79 30.363H222.155V30.6677H219.809L219.84 28.5351ZM219.84 12.3273V10.1948H222.186V10.4994H221.82C221.576 10.4956 221.333 10.5423 221.108 10.6367C220.882 10.7311 220.679 10.871 220.51 11.0478C220.166 11.3853 219.969 11.8452 219.962 12.3273H219.84ZM233.549 9.61591L243.116 30.4849H237.845L231.752 15.252L233.549 9.61591ZM227.243 28.5351C227.091 28.8479 227.059 29.2054 227.152 29.5404C227.242 29.8 227.413 30.0241 227.639 30.1802C227.851 30.3101 228.092 30.3835 228.34 30.3935H228.614V30.6981H222.338V30.3935H222.612C223.097 30.3887 223.571 30.2517 223.983 29.9974C224.519 29.6557 224.934 29.1551 225.171 28.5655L227.243 28.5351ZM233.549 9.61591L233.671 13.1804L226.39 30.5763H224.257L231.843 13.4241C231.904 13.3022 231.996 13.089 232.148 12.7843C232.3 12.4797 232.453 12.0836 232.605 11.6876C232.757 11.2915 232.94 10.8955 233.062 10.5299C233.176 10.2369 233.248 9.92913 233.275 9.61591H233.549ZM236.596 23.691V24.9097H228.005V23.691H236.596ZM237.053 28.5351H242.171C242.436 29.1076 242.845 29.6012 243.359 29.967C243.773 30.2177 244.246 30.3543 244.73 30.363H244.974V30.6677H235.682V30.363H235.956C236.348 30.3539 236.721 30.1896 236.992 29.906C237.269 29.5709 237.3 29.1139 237.056 28.5351H237.053ZM247.32 9.73777L265.965 27.5297L266.33 31.0637L247.655 13.3327L247.32 9.73777ZM247.442 28.596V30.6677H245.004V30.363H245.583C246.052 30.3554 246.501 30.1678 246.835 29.8389C247.17 29.5099 247.365 29.0649 247.381 28.596H247.442ZM251.555 28.596C251.556 28.8303 251.603 29.062 251.694 29.2779C251.786 29.4937 251.918 29.6894 252.086 29.8536C252.253 30.0178 252.451 30.1474 252.668 30.2348C252.885 30.3223 253.118 30.3658 253.352 30.363H253.9V30.6677H251.463V28.5655L251.555 28.596ZM247.32 9.73777L251.524 14.2162L251.555 30.6677H247.381V13.3936C247.397 12.5166 247.336 11.6399 247.198 10.7736C247.076 10.1034 247.015 9.73777 247.015 9.73777H247.32ZM266.239 10.1948V27.3469C266.235 27.998 266.266 28.6488 266.33 29.2967C266.391 29.8756 266.452 30.3021 266.513 30.6067L266.605 31.0637H266.33L262.096 26.3111V10.1643L266.239 10.1948ZM268.585 10.1948V10.4994H268.067C267.834 10.4942 267.603 10.5376 267.388 10.6268C267.173 10.7159 266.979 10.849 266.818 11.0173C266.479 11.3462 266.282 11.7945 266.269 12.2664H266.178V10.1643H268.585V10.1948ZM259.719 10.1948H262.157V12.2664H262.096C262.095 12.0317 262.046 11.7995 261.952 11.5846C261.858 11.3696 261.72 11.1765 261.547 11.0173C261.387 10.848 261.193 10.7144 260.978 10.6252C260.763 10.5359 260.531 10.4931 260.298 10.4994H259.75L259.719 10.1948ZM277.572 9.76823C277.968 9.76823 278.425 9.7987 279.004 9.82916C279.583 9.85963 280.192 9.92056 280.802 10.012C281.411 10.1034 281.959 10.1338 282.416 10.2252C282.749 10.2524 283.077 10.3241 283.391 10.4385L283.026 14.399H282.721C282.736 13.9299 282.639 13.464 282.438 13.0401C282.236 12.6161 281.936 12.2464 281.563 11.9618C280.711 11.3035 279.653 10.9688 278.578 11.0173C277.598 10.9793 276.633 11.2688 275.836 11.8399C275.52 12.07 275.258 12.3665 275.068 12.7086C274.879 13.0507 274.766 13.4301 274.739 13.8202C274.72 14.3794 274.916 14.9245 275.287 15.3434C275.721 15.8135 276.225 16.2142 276.78 16.5316L282.355 20.157C283.219 20.6186 283.928 21.3239 284.394 22.1852C284.859 23.0464 285.062 24.0257 284.975 25.0011C284.884 26.9204 284.153 28.3827 282.782 29.449C281.411 30.5153 279.556 31.0333 277.237 31.0333C276.389 31.0276 275.542 30.9461 274.708 30.7895C273.979 30.6719 273.264 30.4779 272.576 30.2107C272.017 29.9918 271.508 29.6599 271.083 29.2358C270.921 28.7345 270.849 28.2085 270.87 27.682C270.901 27.0652 270.993 26.453 271.144 25.8541C271.294 25.3122 271.508 24.7905 271.784 24.3003H272.058C271.954 25.2518 272.133 26.2128 272.572 27.0634C273.011 27.9139 273.69 28.6165 274.526 29.0835C275.454 29.6006 276.511 29.8435 277.572 29.7842C278.852 29.7537 279.857 29.449 280.558 28.8093C280.891 28.5218 281.158 28.1664 281.342 27.7671C281.526 27.3677 281.622 26.9336 281.624 26.4939C281.624 25.9006 281.432 25.3233 281.076 24.8487C280.594 24.2602 279.991 23.7823 279.309 23.4473L274.191 20.0656C273.234 19.5512 272.451 18.7673 271.936 17.8112C271.466 16.8906 271.276 15.8529 271.388 14.8255C271.474 13.8812 271.787 12.9717 272.302 12.175C272.816 11.3909 273.531 10.7595 274.373 10.3471C275.395 9.9557 276.481 9.75936 277.575 9.76823H277.572ZM283.391 10.0729L283.33 10.6822H279.857V10.0729H283.391Z" fill="#F6F6F6"/>
<path d="M2.28491 9.49396L20.9299 27.2859L21.2955 30.8199L2.62003 13.0889L2.28491 9.49396Z" fill="#F6F6F6"/>
<path d="M2.43725 28.3522V30.4239H0V30.1192H0.548382C0.785293 30.1216 1.02034 30.0771 1.23995 29.9882C1.45957 29.8993 1.65941 29.7678 1.82794 29.6013C2.15852 29.2695 2.34466 28.8206 2.34585 28.3522H2.43725Z" fill="#F6F6F6"/>
<path d="M6.5195 28.3523C6.52734 28.8265 6.71923 29.2792 7.05464 29.6146C7.39005 29.95 7.8427 30.1419 8.31697 30.1497H8.86535V30.4544H6.4281V28.3523H6.5195Z" fill="#F6F6F6"/>
<path d="M2.28488 9.49396L6.48914 13.9724L6.51961 30.4239H2.34581V13.1498C2.37712 12.2725 2.31585 11.3943 2.16302 10.5298L1.98022 9.49396H2.28488Z" fill="#F6F6F6"/>
<path d="M21.1737 9.9509V27.0726C21.1701 27.7237 21.2006 28.3745 21.2651 29.0224C21.3261 29.6012 21.387 30.0582 21.4479 30.3324L21.5393 30.7894H21.2651L17.0304 26.0977V9.9509H21.1737Z" fill="#F6F6F6"/>
<path d="M22.9742 9.95097V10.2556H22.4563C22.2235 10.2504 21.9922 10.2938 21.7771 10.383C21.5621 10.4722 21.368 10.6052 21.2072 10.7735C20.8684 11.1024 20.6716 11.5507 20.6588 12.0226H20.5674V9.9205H22.9742V9.95097Z" fill="#F6F6F6"/>
<path d="M14.6842 9.9509H17.1215V12.0226H17.0605C17.0601 11.7878 17.0112 11.5557 16.9169 11.3407C16.8225 11.1258 16.6847 10.9326 16.5121 10.7735C16.352 10.5958 16.1537 10.4569 15.932 10.3672C15.7103 10.2775 15.4712 10.2393 15.2326 10.2556H14.6842V9.9509Z" fill="#F6F6F6"/>
<path fill-rule="evenodd" clip-rule="evenodd" d="M49.2599 18.7982H48.2515L45.8874 21.9879H45.2232L45.0404 19.9406L45.5949 18.3442L46.2073 14.1156L45.4913 13.7957L44.5621 8.18395L40.2878 4.91194L39.0143 2.09082H35.328L34.0545 4.91194L29.7802 8.18395L28.851 13.7957L28.1351 14.1156L28.7474 18.3442L29.3049 19.9406L29.1191 21.9879H28.455L26.0939 18.7982H25.0854L25.7222 23.1852L28.6652 27.0422L27.605 27.816L37.0524 36.9131L36.9183 36.1697L28.4001 23.8768L30.2585 23.106L36.8391 27.9226L37.0524 27.6028L36.574 16.8819L31.3461 14.7523L31.7178 17.1469L35.8063 19.0084L36.5466 26.832L36.3882 26.9386L30.6302 22.0702L30.9501 19.4075L30.1275 17.8111L29.7802 14.5147L30.3134 14.1156L30.6302 14.1674L36.9975 5.94777L30.4718 13.0249L31.0293 9.06136L35.1147 5.89598L35.9373 3.20891H38.405L39.2276 5.89598L43.3161 9.06136L43.8706 13.0249L37.3448 5.94777L43.7121 14.1674L44.032 14.1156L44.5621 14.5147L44.2148 17.8111L43.3953 19.4075L43.7121 22.0702L37.9541 26.9386L37.7957 26.832L38.5391 19.0084L42.6245 17.1469L42.9962 14.7523L37.7683 16.8819L37.29 27.6028L37.5032 27.9226L44.0838 23.106L45.9422 23.8768L37.424 36.1697L37.29 36.9131L46.7374 27.816L45.6772 27.0422L48.6202 23.1852L49.2599 18.7982Z" fill="#F6F6F6"/>
</g>
<defs>
<clipPath id="clip0_1_25">
<rect width="285" height="34.8222" fill="white" transform="translate(0 2.09082)"/>
</clipPath>
</defs>
</svg>
